<svg width="44" height="38" viewBox="0 0 44 38" fill="none" xmlns="http://www.w3.org/2000/svg">
<path d="M15.2927 24.142C16.6139 25.5851 17.2817 27.371 17.2817 29.4856C17.2817 31.8427 16.5728 33.8431 15.1571 35.5007C13.7547 37.1712 12.1068 38 10.2544 38C7.5441 38 5.16163 36.7853 3.09142 34.3711C1.03566 31.9569 0 28.8281 0 24.9708C0 15.7278 5.31165 7.39996 15.9461 0L17.9751 2.78606C13.8081 5.92766 10.73 9.05761 8.76977 12.1572C6.80847 15.2569 5.82837 17.9275 5.82837 20.1855C5.82837 21.6998 6.33286 22.4575 7.33963 22.4575L7.97969 22.3852C8.98757 22.1136 9.8321 21.9854 10.5133 21.9854C12.3657 21.9854 13.9581 22.7 15.2927 24.142ZM41.3164 24.2003C42.6388 25.6423 43.3055 27.4141 43.3055 29.5276C43.3055 31.8707 42.5965 33.857 41.153 35.5135C39.7229 37.1712 38.0894 38 36.2781 38C33.5412 38 31.1443 36.7993 29.0885 34.3711C27.045 31.9569 26.0237 28.8281 26.0237 24.9708C26.0237 15.7278 31.3209 7.39996 41.9165 0L44 2.80005C39.8185 5.94282 36.7548 9.08559 34.7935 12.1852C32.8189 15.3 31.8388 17.9858 31.8388 20.2566C31.8521 21.7721 32.3422 22.5135 33.3089 22.5135L33.9356 22.4575C34.998 22.1859 35.8425 22.0565 36.4692 22.0565C38.375 22.0565 39.9818 22.7711 41.3164 24.2003Z" fill="url(#paint0_linear_2013_1834)"/>
<defs>
<linearGradient id="paint0_linear_2013_1834" x1="22" y1="0" x2="22" y2="38" gradientUnits="userSpaceOnUse">
<stop stop-color="#303031"/>
<stop offset="1" stop-color="#A18265"/>
</linearGradient>
</defs>
</svg>
