<svg width="44" height="38" viewBox="0 0 44 38" fill="none" xmlns="http://www.w3.org/2000/svg">
<path d="M44 13.028C44 22.2722 38.6767 30.6 28.0444 38L26.0303 35.2139C30.1961 32.0712 33.2733 28.9424 35.2329 25.8428C37.1936 22.7431 38.1734 20.0725 38.1734 17.8145C38.1734 16.3002 37.6691 15.5576 36.6626 15.5576L36.0227 15.6148C35.0152 15.8864 34.1709 16.0146 33.4899 16.0146C31.6381 16.0146 30.0462 15.3 28.712 13.858C27.3778 12.4149 26.7235 10.629 26.7235 8.51438C26.7235 6.15731 27.4323 4.15694 28.8342 2.49929C30.2495 0.843975 31.8969 0 33.7488 0C36.4438 0 38.84 1.21468 40.8962 3.62887C42.9658 6.04307 44 9.17068 44 13.028ZM17.983 13.028C17.983 22.2722 12.6886 30.6 2.09736 38L0 35.1999C4.17916 32.0572 7.25632 28.9144 9.21704 25.8148C11.1766 22.7 12.1576 20.0142 12.1576 17.7434C12.1576 16.2279 11.6799 15.4854 10.7012 15.4854L10.0613 15.5437C9.01263 15.8141 8.16835 15.9435 7.54181 15.9435C5.63664 15.9435 4.0303 15.2289 2.69612 13.7997C1.36195 12.3577 0.707636 10.5859 0.707636 8.47242C0.707636 6.12933 1.41638 4.14295 2.85943 2.48647C4.28914 0.828824 5.90881 0 7.73289 0C10.469 0 12.8652 1.21468 14.9203 3.62887C16.9633 6.04307 17.9842 9.17185 17.9842 13.0292L17.983 13.028Z" fill="url(#paint0_linear_2013_1837)"/>
<defs>
<linearGradient id="paint0_linear_2013_1837" x1="22" y1="0" x2="22" y2="38" gradientUnits="userSpaceOnUse">
<stop stop-color="#303031"/>
<stop offset="1" stop-color="#A18265"/>
</linearGradient>
</defs>
</svg>
