<svg width="40" height="33" viewBox="0 0 40 33" fill="none" xmlns="http://www.w3.org/2000/svg">
<path d="M33.6172 28.3962L33.4019 27.9127V0H0V33H39.9608C39.9804 33 40 33 40 32.9807C40 32.9613 40 32.942 39.9804 32.942H39.9608C37.2002 32.6131 34.792 30.8916 33.6172 28.3962ZM32.5012 25.9783L31.5614 23.9666C31.9334 23.2509 32.2467 22.5352 32.5012 21.7808V25.9783ZM31.072 22.9414L22.5159 4.60375C21.8306 3.15299 20.7146 1.93435 19.3049 1.12192C27.8806 2.51465 33.6955 10.5229 32.2859 18.9953C32.0705 20.3687 31.6593 21.6841 31.072 22.9414ZM32.5012 0.889801V11.2192C30.8174 6.36401 26.9604 2.55334 22.046 0.889801H32.5012ZM0.900636 0.889801H11.3558C6.44151 2.55334 2.58443 6.36401 0.900636 11.2192V0.889801ZM0.900636 21.7808C1.74254 24.2374 3.17181 26.4619 5.05139 28.2802C4.65981 29.3634 2.62359 31.0656 0.900636 31.5686V21.7808ZM0.900636 16.5C0.920215 8.85932 6.51982 2.34056 14.1557 1.10258C15.5653 1.91501 16.7009 3.13365 17.3862 4.60375L28.0176 27.371C21.9481 33.5416 11.9432 33.6964 5.6975 27.6999C2.62359 24.7597 0.900636 20.7169 0.900636 16.5ZM28.4092 28.2222L28.4875 28.3769C29.2511 29.9824 30.5237 31.2978 32.1292 32.1102H22.046C24.4347 31.2978 26.6079 29.9824 28.4092 28.2222Z" fill="#A18265"/>
</svg>
