<svg width="11" height="14" viewBox="0 0 11 14" fill="none" xmlns="http://www.w3.org/2000/svg">
<path d="M5.07027 0C2.27451 0 0 2.27451 0 5.07024C0 8.53984 4.53739 13.6334 4.73058 13.8485C4.91203 14.0506 5.22884 14.0503 5.40996 13.8485C5.60314 13.6334 10.1405 8.53984 10.1405 5.07024C10.1405 2.27451 7.866 0 5.07027 0ZM5.07027 7.62122C3.66365 7.62122 2.51932 6.47686 2.51932 5.07024C2.51932 3.66363 3.66368 2.51929 5.07027 2.51929C6.47686 2.51929 7.62119 3.66365 7.62119 5.07027C7.62119 6.47689 6.47686 7.62122 5.07027 7.62122Z" fill="#A18265"/>
</svg>
