<svg width="14" height="14" viewBox="0 0 14 14" fill="none" xmlns="http://www.w3.org/2000/svg">
<g clip-path="url(#clip0_284_17861)">
<path fill-rule="evenodd" clip-rule="evenodd" d="M13.7443 12.3143C13.6514 12.407 13.5393 12.5255 13.4204 12.6509C13.1238 12.9657 12.7532 13.357 12.521 13.5157C11.299 14.3507 9.66414 13.9512 8.50775 13.4694C6.98227 12.8338 5.32143 11.6622 3.83019 10.1708C2.33755 8.67921 1.16609 7.01786 0.530481 5.49325C0.0492309 4.33661 -0.351164 2.70145 0.483997 1.47919C0.64259 1.24677 1.03484 0.876777 1.34923 0.579578C1.47502 0.46107 1.59259 0.349097 1.68556 0.25643C1.85062 0.0921965 2.07399 0 2.30683 0C2.53967 0 2.76304 0.0921965 2.92809 0.25643L5.17651 2.5042C5.34066 2.66924 5.43279 2.89255 5.43279 3.12532C5.43279 3.35809 5.34066 3.5814 5.17651 3.74645L4.56401 4.35772C4.35946 4.56078 4.22594 4.82446 4.18333 5.10951C4.14072 5.39457 4.19129 5.68577 4.32752 5.93977C5.16997 7.52982 6.47057 8.8302 8.06076 9.67239C8.3147 9.80857 8.60585 9.85908 8.89082 9.81639C9.1758 9.77371 9.43936 9.64012 9.64227 9.43551L10.2533 8.82421C10.4183 8.65998 10.6417 8.56778 10.8745 8.56778C11.1074 8.56778 11.3307 8.65998 11.4958 8.82421L13.7443 11.0724C13.9085 11.2373 14.0006 11.4606 14.0006 11.6933C14.0006 11.9261 13.9085 12.1494 13.7443 12.3143Z" fill="#A18265"/>
</g>
<defs>
<clipPath id="clip0_284_17861">
<rect width="14" height="14" fill="white"/>
</clipPath>
</defs>
</svg>
