<svg width="16" height="16" viewBox="0 0 16 16" fill="none" xmlns="http://www.w3.org/2000/svg">
<path d="M13.1876 2.25287C11.7342 0.804597 9.79647 0 7.75105 0C3.49874 0 0.0538259 3.43295 0.0538259 7.6705C0.0538259 9.01149 0.430614 10.3525 1.07653 11.4789L0 15.4483L4.09083 14.3755C5.2212 14.9655 6.45921 15.2874 7.75105 15.2874C12.0034 15.2874 15.4483 11.8544 15.4483 7.61686C15.3944 5.63218 14.6409 3.70115 13.1876 2.25287ZM11.4651 10.4061C11.3036 10.8352 10.55 11.2644 10.1733 11.318C9.85029 11.3716 9.41968 11.3716 8.98907 11.2644C8.71993 11.1571 8.34315 11.0498 7.91253 10.8353C5.97477 10.0307 4.73675 8.09962 4.6291 7.9387C4.52145 7.83142 3.8217 6.91954 3.8217 5.95402C3.8217 4.98851 4.30614 4.55939 4.46762 4.34483C4.6291 4.13027 4.84441 4.13027 5.00589 4.13027C5.11354 4.13027 5.27502 4.13027 5.38267 4.13027C5.49033 4.13027 5.65181 4.07663 5.81329 4.45211C5.97477 4.82759 6.35155 5.7931 6.40538 5.84674C6.45921 5.95402 6.45921 6.0613 6.40538 6.16858C6.35155 6.27586 6.29773 6.38314 6.19007 6.49042C6.08242 6.5977 5.97477 6.75862 5.92094 6.81226C5.81329 6.91954 5.70563 7.02682 5.81329 7.18774C5.92094 7.4023 6.29773 7.99234 6.88982 8.52874C7.6434 9.17241 8.23549 9.38697 8.4508 9.49425C8.66611 9.60153 8.77376 9.54789 8.88141 9.44061C8.98906 9.33333 9.36585 8.90422 9.47351 8.68966C9.58116 8.4751 9.74264 8.52874 9.90412 8.58238C10.0656 8.63602 11.0345 9.11878 11.196 9.22606C11.4113 9.33333 11.5189 9.38697 11.5727 9.44061C11.6266 9.60153 11.6266 9.97701 11.4651 10.4061Z" fill="#F1F1F1"/>
</svg>
