<svg width="186" height="37" viewBox="0 0 186 37" fill="none" xmlns="http://www.w3.org/2000/svg">
<g clip-path="url(#clip0_281_9712)">
<path d="M37.5632 31.8382L37.3225 31.296V0H0V37H44.6514C44.6733 37 44.6951 37 44.6951 36.9783C44.6951 36.9566 44.6951 36.9349 44.6733 36.9349H44.6514C41.5667 36.5662 38.8758 34.636 37.5632 31.8382ZM1.00635 0.997655H12.6888C7.1976 2.86284 2.88779 7.1354 1.00635 12.5791V0.997655ZM1.00635 35.3951V24.4209C1.94707 27.1753 3.54411 29.6694 5.64432 31.7081C5.1849 32.9226 2.90967 34.8312 1.00635 35.3951ZM1.00635 18.5C1.02823 9.93318 7.28511 2.62427 15.8172 1.23623C17.3924 2.14713 18.6613 3.51348 19.427 5.16178L31.3063 30.6887C24.5243 37.6073 13.3451 37.7808 6.36627 31.0574C2.93155 27.7608 1.00635 23.228 1.00635 18.5ZM24.6337 36.0023C27.3028 35.0914 29.7311 33.6166 31.7438 31.643L31.8313 31.8165C32.6845 33.6166 34.1066 35.0914 35.9005 35.9807L24.6337 36.0023ZM36.3162 29.1272L35.2661 26.8716C35.6817 26.0692 36.0318 25.2667 36.3162 24.4209V29.1272ZM34.7191 25.7222L25.1588 5.16178C24.3931 3.53517 23.1461 2.16882 21.5709 1.25791C31.1531 2.81946 37.6507 11.7984 36.0755 21.2978C35.8349 22.8376 35.3754 24.3124 34.7191 25.7222ZM36.3162 12.5791C34.4347 7.1354 30.1249 2.86284 24.6337 0.997655H36.3162V12.5791ZM67.71 20.0182H65.7848L60.5342 8.89215C60.3155 8.43669 60.1186 8.02462 59.9654 7.63423C59.8123 7.24384 59.6591 6.87515 59.5279 6.50645H59.3529C59.2216 6.87515 59.0685 7.24384 58.9153 7.63423C58.7622 8.02462 58.5434 8.45838 58.3465 8.89215L53.0741 20.0182H51.2802L58.3684 5.40035H60.6217L67.71 20.0182ZM81.952 19.9314H70.0289V5.40035H81.8207V6.85346H71.7572V11.7116H80.5956V13.1647H71.7572V18.4566H81.952V19.9314ZM92.3218 5.09672C89.9372 5.09672 87.9901 5.74736 86.4806 7.04865C84.9711 8.34994 84.2054 10.1934 84.2054 12.5791V12.7309C84.2054 15.1383 84.9711 16.9818 86.4806 18.2831C87.9901 19.5844 89.9372 20.2351 92.3218 20.2351C94.6845 20.2351 96.6316 19.5844 98.1411 18.2831C99.6507 16.9818 100.416 15.1166 100.416 12.7309V12.5791C100.416 10.1717 99.6507 8.32825 98.1411 7.02696C96.6316 5.72567 94.6845 5.09672 92.3218 5.09672ZM98.6662 12.7309C98.6662 14.6829 98.0755 16.1577 96.916 17.177C95.7565 18.1964 94.2251 18.7169 92.3218 18.7169C90.4185 18.7169 88.8871 18.1964 87.7276 17.177C86.5681 16.1577 85.9774 14.6612 85.9774 12.7309V12.5791C85.9774 10.6272 86.5681 9.13072 87.7276 8.11137C88.8871 7.09203 90.4185 6.5932 92.3218 6.5932C94.2251 6.5932 95.7565 7.11372 96.916 8.13306C98.0755 9.1524 98.6662 10.6272 98.6662 12.5791V12.7309ZM116.299 13.1647H105.251V19.9314H103.501V5.40035H105.251V11.7116H116.299V5.40035H118.049V19.9314H116.299V13.1647ZM127.107 5.3136L120.04 19.9314H121.834L123.65 16.1143H132.751L134.545 19.9314H136.47L129.404 5.3136H127.107ZM124.306 14.6612L127.085 8.80539C127.303 8.37163 127.478 7.93787 127.632 7.54748C127.785 7.15709 127.938 6.78839 128.069 6.41969H128.244C128.397 6.78839 128.529 7.15709 128.704 7.54748C128.879 7.93787 129.054 8.34994 129.272 8.80539L132.051 14.6612H124.306ZM151.543 9.82474C151.587 8.54513 150.953 7.30891 149.903 6.57151C148.809 5.76905 147.212 5.37866 145.111 5.37866H138.92V19.9097H140.67V14.2708H145.111C147.212 14.2708 148.809 13.8587 149.903 13.0563C150.975 12.3189 151.587 11.1043 151.543 9.82474ZM148.765 11.9719C148.065 12.5358 146.84 12.8177 145.111 12.796H140.649V6.85346H145.09C146.84 6.85346 148.043 7.1354 148.743 7.67761C149.421 8.17644 149.815 8.9789 149.793 9.82474C149.815 10.6706 149.443 11.4513 148.765 11.9719ZM169.308 22.8159V18.4566H167.361L161.016 5.40035H158.763L152.418 18.4566H150.034V22.8159H151.653V19.9314H167.667V22.8159H169.308ZM154.191 18.4566L158.719 8.89215C158.916 8.43669 159.113 8.02462 159.266 7.63423C159.419 7.24384 159.594 6.87515 159.704 6.50645H159.879C160.01 6.87515 160.163 7.24384 160.316 7.63423C160.469 8.02462 160.666 8.43669 160.885 8.89215L165.414 18.4566H154.191ZM183.725 7.02696C182.215 5.72567 180.268 5.09672 177.905 5.07503C175.543 5.07503 173.596 5.72567 172.064 7.02696C170.555 8.32825 169.789 10.1717 169.789 12.5791V12.7309C169.789 15.1383 170.555 16.9818 172.064 18.2831C173.574 19.5844 175.521 20.2351 177.905 20.2351C180.268 20.2351 182.215 19.5844 183.725 18.2831C185.234 16.9818 186 15.1383 186 12.7309V12.5791C186 10.1717 185.256 8.32825 183.725 7.02696ZM184.228 12.7309C184.228 14.6829 183.637 16.1577 182.478 17.177C181.318 18.1964 179.787 18.7169 177.884 18.7169C175.98 18.7169 174.449 18.1964 173.289 17.177C172.13 16.1577 171.539 14.6612 171.539 12.7309V12.5791C171.539 10.6272 172.13 9.13072 173.289 8.11137C174.449 7.09203 175.98 6.5932 177.884 6.5932C179.787 6.5932 181.318 7.11372 182.478 8.13306C183.637 9.1524 184.228 10.6489 184.228 12.5791V12.7309ZM55.0868 27.0668H55.7431V31.3611H55.0868V28.0862L52.8772 31.3611H52.2209V27.0668H52.8772V30.3634L55.0868 27.0668ZM62.1969 27.0668H62.8532V31.3611H62.1969V29.5176H59.8342V31.3611H59.1778V27.0668H59.8342V28.9103H62.1969V27.0668ZM65.9379 27.0668H69.6133V27.6741H68.1037V31.3611H67.4474V27.6741H65.9379V27.0668ZM76.5046 29.4091C76.5265 29.0621 76.4827 28.7151 76.3952 28.3898C76.3296 28.1079 76.1983 27.8476 76.0233 27.609C75.8483 27.3921 75.6295 27.2403 75.3888 27.1319C75.1044 27.0234 74.82 26.9584 74.5138 26.9584C74.2294 26.9584 73.9231 27.0018 73.6606 27.1102C73.4199 27.2186 73.1793 27.3705 73.0042 27.5656C72.8073 27.7825 72.6761 28.0211 72.5886 28.2814C72.4792 28.585 72.4354 28.9103 72.4354 29.2139C72.4354 29.5393 72.4792 29.8429 72.5886 30.1465C72.6761 30.4068 72.8292 30.6454 73.0042 30.8623C73.1793 31.0574 73.4199 31.2093 73.6606 31.3177C73.9231 31.4261 74.2294 31.4912 74.5138 31.4695C74.7325 31.4695 74.9294 31.4478 75.1263 31.3828C75.3232 31.3394 75.4982 31.2526 75.6514 31.1442C75.8045 31.0358 75.9577 30.9273 76.0889 30.7755C76.2202 30.6237 76.3296 30.4502 76.4171 30.2767L75.7826 30.0598C75.6732 30.2984 75.4982 30.4936 75.2795 30.6454C75.0388 30.7972 74.7763 30.8623 74.4919 30.8623C74.295 30.8623 74.0981 30.8189 73.9012 30.7538C73.7262 30.6887 73.573 30.5586 73.4637 30.4285C73.3324 30.2767 73.2449 30.0815 73.1793 29.908C73.1355 29.7345 73.1136 29.561 73.1136 29.4091H76.5046ZM73.4855 27.9777C73.5949 27.8259 73.7481 27.7175 73.9231 27.6524C74.0981 27.5656 74.295 27.544 74.5138 27.544C74.8638 27.5223 75.2138 27.6524 75.4545 27.9127C75.6732 28.1946 75.8045 28.5199 75.8264 28.8669H73.1793C73.1793 28.7368 73.2011 28.6284 73.223 28.4982C73.2668 28.303 73.3761 28.1295 73.4855 27.9777ZM83.2865 27.5873C83.1115 27.3921 82.9146 27.2403 82.674 27.1319C82.4114 27.0234 82.127 26.9584 81.8645 26.9584C81.5801 26.9584 81.3176 27.0018 81.055 27.1319C80.8363 27.2403 80.6394 27.3921 80.5081 27.5873C80.4644 27.6741 80.4206 27.7608 80.3987 27.8476V27.0668H79.7424V33.2913H80.3987V30.602C80.4206 30.6887 80.4644 30.7755 80.5081 30.8623C80.6613 31.0574 80.8363 31.2309 81.055 31.3394C81.3176 31.4695 81.5801 31.5129 81.8645 31.5129C82.1489 31.5129 82.4114 31.4695 82.674 31.3394C82.9146 31.2309 83.1334 31.0791 83.3084 30.8623C83.4834 30.6454 83.6147 30.4068 83.7022 30.1465C83.7897 29.8429 83.8553 29.5393 83.8335 29.2139C83.8335 28.9103 83.7897 28.585 83.7022 28.303C83.5928 28.0211 83.4615 27.7825 83.2865 27.5873ZM83.0459 29.8863C83.0021 30.0815 82.9146 30.255 82.7833 30.4068C82.674 30.5586 82.5208 30.6671 82.3458 30.7538C82.1489 30.8406 81.952 30.8839 81.7332 30.8839C81.5363 30.8839 81.3176 30.8406 81.1426 30.7755C80.9675 30.7104 80.8144 30.5803 80.705 30.4285C80.5737 30.2767 80.4862 30.1032 80.4425 29.908C80.3769 29.6911 80.355 29.4525 80.355 29.2356C80.355 29.0188 80.3769 28.7802 80.4425 28.5633C80.4862 28.3681 80.5737 28.1946 80.6831 28.0428C80.7925 27.891 80.9457 27.7825 81.1207 27.6958C81.3176 27.609 81.5145 27.5656 81.7332 27.5656C81.952 27.5656 82.1489 27.609 82.3458 27.6741C82.5208 27.7392 82.674 27.8693 82.7833 27.9994C82.9146 28.1512 82.9802 28.3247 83.0459 28.5199C83.1115 28.7368 83.1334 28.9754 83.1334 29.1923C83.1334 29.4308 83.0896 29.6694 83.0459 29.8863ZM90.0903 29.0621C89.9591 28.932 89.784 28.8453 89.609 28.7802C89.3903 28.7151 89.1715 28.6717 88.9527 28.6717H87.662V27.0668H87.0056V31.3611H88.9527C89.1715 31.3611 89.3903 31.3394 89.609 31.2526C89.784 31.1876 89.9372 31.1008 90.0903 30.9707C90.2216 30.8406 90.3091 30.7104 90.3747 30.5369C90.4404 30.3634 90.4622 30.1899 90.4622 29.9947C90.4622 29.8212 90.4404 29.626 90.3747 29.4525C90.3091 29.3224 90.1997 29.1706 90.0903 29.0621ZM89.7622 30.3417C89.7184 30.4285 89.6747 30.5152 89.5872 30.602C89.4996 30.6671 89.4121 30.7321 89.3028 30.7755C89.1715 30.8189 89.0183 30.8406 88.8871 30.8406H87.6838V29.2573H88.8871C89.0183 29.2573 89.1715 29.279 89.3028 29.3224C89.4121 29.3658 89.4996 29.4091 89.5872 29.4959C89.6747 29.561 89.7184 29.6477 89.7622 29.7562C89.8059 29.8646 89.8278 29.973 89.8278 30.0815C89.8059 30.1249 89.784 30.2333 89.7622 30.3417ZM97.4848 29.4091C97.5067 29.0621 97.463 28.7151 97.3754 28.3898C97.3098 28.1079 97.1785 27.8476 97.0035 27.609C96.8285 27.3921 96.6097 27.2403 96.3691 27.1319C96.0847 27.0234 95.8003 26.9584 95.494 26.9584C95.2096 26.9584 94.9033 27.0018 94.6408 27.1102C94.4001 27.2186 94.1595 27.3705 93.9845 27.5656C93.7876 27.7825 93.6563 28.0211 93.5688 28.2814C93.4594 28.585 93.4157 28.9103 93.4157 29.2139C93.4157 29.5393 93.4594 29.8429 93.5688 30.1465C93.6563 30.4068 93.8095 30.6454 93.9845 30.8623C94.1595 31.0574 94.4001 31.2093 94.6408 31.3177C94.9033 31.4261 95.2096 31.4912 95.494 31.4695C95.7128 31.4695 95.9097 31.4478 96.1066 31.3828C96.4785 31.2743 96.8285 31.0791 97.0692 30.7755C97.2004 30.6237 97.3098 30.4502 97.3973 30.2767L96.7629 30.0598C96.6535 30.2984 96.4785 30.4936 96.2597 30.6454C96.0191 30.7972 95.7565 30.8623 95.4721 30.8623C95.2752 30.8623 95.0783 30.8189 94.8814 30.7538C94.7064 30.6887 94.5533 30.5586 94.4439 30.4285C94.3126 30.2767 94.2251 30.0815 94.1595 29.908C94.1157 29.7345 94.0939 29.561 94.0939 29.4091H97.4848ZM94.4876 27.9777C94.597 27.8259 94.7502 27.7175 94.9252 27.6524C95.1002 27.5656 95.2971 27.544 95.494 27.544C95.844 27.5223 96.1941 27.6524 96.4347 27.9127C96.6535 28.1946 96.7848 28.5199 96.8066 28.8669H94.1595C94.1595 28.7368 94.1814 28.6284 94.2032 28.4982C94.2689 28.303 94.3564 28.1295 94.4876 27.9777ZM104.267 27.5873C104.092 27.3921 103.895 27.2403 103.654 27.1319C103.392 27.0234 103.107 26.9584 102.845 26.9584C102.56 26.9584 102.298 27.0018 102.035 27.1319C101.817 27.2403 101.62 27.3921 101.488 27.5873C101.445 27.6741 101.401 27.7608 101.379 27.8476V27.0668H100.723V33.2913H101.379V30.602C101.401 30.6887 101.445 30.7755 101.488 30.8623C101.641 31.0574 101.817 31.2309 102.035 31.3394C102.298 31.4695 102.56 31.5129 102.845 31.5129C103.129 31.5129 103.414 31.4695 103.654 31.3394C103.895 31.2309 104.114 31.0791 104.267 30.8623C104.442 30.6454 104.573 30.4068 104.661 30.1465C104.748 29.8429 104.814 29.5393 104.792 29.2139C104.792 28.9103 104.748 28.585 104.661 28.303C104.573 28.0211 104.442 27.7825 104.267 27.5873ZM104.026 29.8863C103.982 30.0815 103.895 30.255 103.764 30.4068C103.654 30.5586 103.501 30.6671 103.326 30.7538C103.129 30.8406 102.932 30.8839 102.713 30.8839C102.517 30.8839 102.298 30.8406 102.101 30.7755C101.926 30.7104 101.773 30.5803 101.663 30.4285C101.532 30.2767 101.445 30.1032 101.401 29.908C101.335 29.6911 101.313 29.4525 101.313 29.2356C101.313 29.0188 101.335 28.7802 101.401 28.5633C101.445 28.3681 101.532 28.1946 101.663 28.0428C101.773 27.891 101.926 27.7825 102.101 27.6958C102.495 27.544 102.932 27.544 103.326 27.6958C103.501 27.7608 103.654 27.891 103.764 28.0211C103.873 28.1729 103.982 28.3464 104.026 28.5416C104.092 28.7585 104.114 28.9971 104.114 29.2139C104.114 29.4308 104.092 29.6694 104.026 29.8863ZM111.027 27.0668H111.683V31.3828H111.027V29.5393H108.642V31.3828H107.986V27.0668H108.642V28.9103H111.005L111.027 27.0668ZM119.078 27.0668H119.734V31.3828H119.078V27.0668ZM118.203 29.0621C118.071 28.932 117.896 28.8453 117.721 28.7802C117.502 28.7151 117.284 28.6717 117.065 28.6717H115.774V27.0668H115.118V31.3611H117.043C117.262 31.3611 117.481 31.3394 117.699 31.2526C117.874 31.1876 118.028 31.1008 118.181 30.9707C118.312 30.8406 118.399 30.7104 118.465 30.5369C118.531 30.3634 118.553 30.1899 118.553 29.9947C118.553 29.8212 118.531 29.626 118.465 29.4525C118.399 29.3224 118.312 29.1706 118.203 29.0621ZM117.874 30.3417C117.831 30.4285 117.787 30.5152 117.699 30.602C117.612 30.6671 117.524 30.7321 117.415 30.7755C117.284 30.8189 117.131 30.8406 116.999 30.8406H115.796V29.2573H116.999C117.131 29.2573 117.284 29.279 117.415 29.3224C117.524 29.3658 117.634 29.4091 117.699 29.4959C117.765 29.561 117.831 29.6477 117.874 29.7562C117.918 29.8646 117.94 29.973 117.94 30.0815C117.918 30.1249 117.896 30.2333 117.874 30.3417ZM127.019 29.4091C127.041 29.0621 126.997 28.7151 126.91 28.3898C126.844 28.1079 126.713 27.8476 126.538 27.609C126.363 27.3921 126.144 27.2403 125.903 27.1319C125.619 27.0234 125.335 26.9584 125.028 26.9584C124.744 26.9584 124.438 27.0018 124.175 27.1102C123.934 27.2186 123.694 27.3705 123.519 27.5656C123.322 27.7825 123.191 28.0211 123.103 28.2814C122.994 28.585 122.95 28.9103 122.95 29.2139C122.95 29.5393 122.994 29.8429 123.103 30.1465C123.191 30.4068 123.344 30.6454 123.519 30.8623C123.694 31.0574 123.934 31.2093 124.175 31.3177C124.438 31.4261 124.744 31.4912 125.028 31.4695C125.247 31.4695 125.444 31.4478 125.641 31.3828C126.013 31.2743 126.363 31.0791 126.603 30.7755C126.735 30.6237 126.844 30.4502 126.932 30.2767L126.297 30.0598C126.188 30.2984 126.013 30.4936 125.794 30.6454C125.553 30.7972 125.291 30.8623 125.006 30.8623C124.809 30.8623 124.613 30.8189 124.416 30.7538C124.241 30.6887 124.088 30.5586 123.978 30.4285C123.847 30.2767 123.759 30.0815 123.694 29.908C123.65 29.7345 123.628 29.561 123.628 29.4091H127.019ZM123.978 27.9777C124.088 27.8259 124.241 27.7175 124.416 27.6524C124.591 27.5656 124.788 27.544 125.006 27.544C125.356 27.5223 125.706 27.6524 125.947 27.9127C126.166 28.1946 126.297 28.5199 126.319 28.8669H123.672C123.672 28.7368 123.694 28.6284 123.716 28.4982C123.759 28.303 123.847 28.1295 123.978 27.9777ZM141.611 27.5873C141.436 27.3921 141.239 27.2403 140.999 27.1319C140.736 27.0234 140.452 26.9584 140.167 26.9584C139.883 26.9584 139.598 27.0018 139.358 27.1319C139.139 27.2403 138.942 27.3921 138.811 27.5873C138.767 27.6741 138.723 27.7608 138.701 27.8476V27.0668H138.045V33.2913H138.701V30.602C138.723 30.6887 138.767 30.7755 138.811 30.8623C138.964 31.0574 139.139 31.2309 139.358 31.3394C139.62 31.4695 139.883 31.5129 140.167 31.5129C140.452 31.5129 140.736 31.4695 140.977 31.3394C141.217 31.2309 141.436 31.0791 141.589 30.8623C141.764 30.6454 141.896 30.4068 141.983 30.1465C142.071 29.8429 142.136 29.5393 142.136 29.2139C142.136 28.9103 142.092 28.585 141.983 28.303C141.917 28.0211 141.786 27.7825 141.611 27.5873ZM141.37 29.8863C141.327 30.0815 141.239 30.255 141.108 30.4068C140.999 30.5586 140.845 30.6671 140.67 30.7538C140.474 30.8406 140.277 30.8839 140.058 30.8839C139.861 30.8839 139.642 30.8406 139.467 30.7755C139.292 30.7104 139.139 30.5803 139.03 30.4285C138.898 30.2767 138.811 30.1032 138.767 29.908C138.701 29.6911 138.68 29.4525 138.68 29.2356C138.68 29.0188 138.701 28.7802 138.767 28.5633C138.811 28.3681 138.898 28.1946 139.03 28.0428C139.139 27.891 139.292 27.7825 139.467 27.6958C139.664 27.609 139.861 27.5656 140.08 27.5656C140.299 27.5656 140.495 27.609 140.692 27.6741C140.867 27.7392 141.02 27.8693 141.13 27.9994C141.261 28.1512 141.349 28.3247 141.392 28.5199C141.458 28.7368 141.48 28.9754 141.48 29.1923C141.458 29.4308 141.414 29.6694 141.37 29.8863ZM149.181 29.4091C149.203 29.0621 149.159 28.7151 149.071 28.3898C149.006 28.1079 148.874 27.8476 148.699 27.609C148.524 27.3921 148.306 27.2403 148.065 27.1319C147.781 27.0234 147.496 26.9584 147.19 26.9584C146.905 26.9584 146.599 27.0018 146.337 27.1102C146.096 27.2186 145.855 27.3705 145.68 27.5656C145.483 27.7825 145.352 28.0211 145.265 28.2814C145.155 28.585 145.111 28.9103 145.111 29.2139C145.111 29.5393 145.155 29.8429 145.265 30.1465C145.352 30.4068 145.505 30.6454 145.68 30.8623C145.855 31.0574 146.096 31.2093 146.337 31.3177C146.599 31.4261 146.905 31.4912 147.19 31.4695C147.409 31.4695 147.605 31.4478 147.802 31.3828C147.999 31.3394 148.174 31.2526 148.327 31.1442C148.481 31.0358 148.634 30.9273 148.765 30.7755C148.896 30.6237 149.006 30.4502 149.093 30.2767L148.459 30.0598C148.349 30.2984 148.174 30.4936 147.956 30.6454C147.715 30.7972 147.452 30.8623 147.168 30.8623C146.971 30.8623 146.774 30.8189 146.577 30.7538C146.402 30.6887 146.249 30.5586 146.14 30.4285C146.008 30.2767 145.921 30.1032 145.855 29.908C145.812 29.7345 145.79 29.561 145.79 29.4091H149.181ZM146.162 27.9777C146.271 27.8259 146.424 27.7175 146.599 27.6524C146.774 27.5656 146.971 27.544 147.19 27.544C147.54 27.5223 147.89 27.6524 148.131 27.9127C148.349 28.1946 148.481 28.5199 148.502 28.8669H145.855C145.855 28.7368 145.877 28.6284 145.899 28.4982C145.943 28.303 146.03 28.1295 146.162 27.9777ZM157.385 27.0668H158.041V31.3828H152.375V27.0668H153.031V30.7538H154.869V27.0668H155.525V30.7538H157.363L157.385 27.0668ZM165.304 29.4091C165.326 29.0621 165.282 28.7151 165.195 28.3898C165.129 28.1079 164.998 27.8476 164.823 27.609C164.648 27.3921 164.429 27.2403 164.188 27.1319C163.904 27.0234 163.62 26.9584 163.313 26.9584C163.029 26.9584 162.723 27.0018 162.46 27.1102C162.219 27.2186 161.979 27.3705 161.804 27.5656C161.607 27.7825 161.476 28.0211 161.388 28.2814C161.279 28.585 161.235 28.9103 161.235 29.2139C161.235 29.5393 161.279 29.8429 161.388 30.1465C161.476 30.4068 161.629 30.6454 161.804 30.8623C161.979 31.0574 162.219 31.2093 162.46 31.3177C162.723 31.4261 163.029 31.4912 163.313 31.4695C163.532 31.4695 163.729 31.4478 163.926 31.3828C164.298 31.2743 164.648 31.0791 164.889 30.7755C165.02 30.6237 165.129 30.4502 165.217 30.2767L164.582 30.0598C164.473 30.2984 164.298 30.4936 164.079 30.6454C163.838 30.7972 163.576 30.8623 163.291 30.8623C163.095 30.8623 162.898 30.8189 162.701 30.7538C162.526 30.6887 162.373 30.5586 162.263 30.4285C162.132 30.2767 162.044 30.0815 161.979 29.908C161.935 29.7345 161.913 29.561 161.913 29.4091H165.304ZM162.285 27.9777C162.394 27.8259 162.548 27.7175 162.723 27.6524C162.898 27.5656 163.095 27.544 163.313 27.544C163.663 27.5223 164.013 27.6524 164.254 27.9127C164.473 28.1946 164.604 28.5199 164.626 28.8669H161.979C161.979 28.7368 162.001 28.6284 162.023 28.4982C162.066 28.303 162.154 28.1295 162.285 27.9777ZM171.517 27.0668H172.174V31.3611H171.517V29.5176H169.155V31.3611H168.498V27.0668H169.155V28.9103H171.517V27.0668ZM178.474 27.0668H179.131V31.3611H178.474V28.0862L176.287 31.3611H175.63V27.0668H176.287V30.3634L178.474 27.0668ZM183.2 27.1536C183.025 27.2186 182.872 27.3054 182.718 27.4355C182.587 27.5656 182.5 27.6958 182.434 27.8693C182.368 28.0428 182.325 28.2163 182.347 28.4115C182.347 28.6067 182.368 28.7802 182.434 28.9537C182.5 29.1272 182.587 29.2573 182.718 29.3875C182.85 29.5176 183.003 29.6043 183.178 29.6477L182.347 31.3611H183.025L183.812 29.7562H183.834H185.125V31.3611H185.781V27.0451H183.834C183.637 27.0668 183.419 27.0885 183.2 27.1536ZM185.147 27.609V29.1923H183.944C183.812 29.1923 183.659 29.1706 183.528 29.1272C183.419 29.0838 183.309 29.0404 183.243 28.9537C183.156 28.8886 183.112 28.8019 183.068 28.6934C183.025 28.585 183.003 28.4766 183.003 28.3681C183.003 28.2597 183.025 28.1512 183.068 28.0428C183.112 27.956 183.178 27.8693 183.243 27.7825C183.331 27.7175 183.419 27.6524 183.528 27.609C183.659 27.5657 183.812 27.544 183.944 27.544L185.147 27.609Z" fill="white"/>
</g>
<defs>
<clipPath id="clip0_281_9712">
<rect width="186" height="37" fill="white"/>
</clipPath>
</defs>
</svg>
