<?xml version="1.0" encoding="utf-8"?><svg viewBox="0 0 45 45" xmlns="http://www.w3.org/2000/svg" xmlns:xlink="http://www.w3.org/1999/xlink"><style>:root>svg{display:none}:root>svg:target{display:block}</style><svg viewBox="0 0 45 45" id="arrow-rotate" xmlns="http://www.w3.org/2000/svg"><path d="M.354.5h44m0 0v44m0-44l-44 44"/></svg><svg viewBox="0 0 22 25" id="btn-play" xmlns="http://www.w3.org/2000/svg"><path d="M21.127 12.197L0 24.395V0l21.127 12.197z"/></svg><svg viewBox="0 0 14 14" id="clock" xmlns="http://www.w3.org/2000/svg"><path fill-rule="evenodd" clip-rule="evenodd" d="M7 0a7 7 0 100 14A7 7 0 007 0zm2.471 9.471a.524.524 0 01-.742 0l-2.1-2.1A.523.523 0 016.475 7V3.5a.525.525 0 111.05 0v3.282L9.471 8.73a.524.524 0 010 .742z"/></svg><svg viewBox="0 0 40 33" id="design-icon" xmlns="http://www.w3.org/2000/svg"><path d="M33.617 28.396l-.215-.483V0H0v33h39.96c.02 0 .04 0 .04-.02 0-.019 0-.038-.02-.038h-.02c-2.76-.329-5.168-2.05-6.343-4.546zm-1.116-2.418l-.94-2.011c.372-.716.686-1.432.94-2.186v4.197zm-1.429-3.037L22.516 4.604a7.928 7.928 0 00-3.211-3.482c8.576 1.393 14.39 9.4 12.98 17.873a14.657 14.657 0 01-1.213 3.946zM32.502.89v10.33C30.816 6.363 26.96 2.552 22.045.89H32.5zM.9.89h10.455C6.442 2.553 2.584 6.364.9 11.22V.89zm0 20.89a16.503 16.503 0 004.15 6.5c-.391 1.083-2.427 2.786-4.15 3.289V21.78zm0-5.28C.92 8.86 6.52 2.34 14.156 1.103a7.916 7.916 0 013.23 3.5l10.632 22.768c-6.07 6.17-16.075 6.325-22.32.329A15.491 15.491 0 01.9 16.5zm27.508 11.722l.079.155a8.057 8.057 0 003.641 3.733H22.046a16.832 16.832 0 006.363-3.888z"/></svg><svg viewBox="0 0 11 14" id="map" xmlns="http://www.w3.org/2000/svg"><path d="M5.07 0A5.076 5.076 0 000 5.07c0 3.47 4.537 8.563 4.73 8.778a.457.457 0 00.68 0c.193-.215 4.73-5.308 4.73-8.778A5.076 5.076 0 005.07 0zm0 7.621a2.554 2.554 0 01-2.55-2.55 2.554 2.554 0 012.55-2.552A2.554 2.554 0 017.621 5.07a2.554 2.554 0 01-2.55 2.551z"/></svg><svg viewBox="0 0 14 14" id="phone" xmlns="http://www.w3.org/2000/svg"><g clip-path="url(#fa)"><path fill-rule="evenodd" clip-rule="evenodd" d="M13.744 12.314c-.093.093-.205.211-.324.337-.296.315-.667.706-.899.865-1.222.835-2.857.435-4.013-.047-1.526-.635-3.187-1.807-4.678-3.298C2.338 8.679 1.166 7.018.53 5.493.05 4.337-.35 2.701.484 1.48c.159-.232.55-.602.865-.9.126-.118.244-.23.337-.323a.88.88 0 011.242 0l2.249 2.248a.88.88 0 010 1.242l-.613.612a1.338 1.338 0 00-.236 1.582A8.983 8.983 0 008.06 9.672a1.337 1.337 0 001.581-.236l.611-.612a.88.88 0 011.243 0l2.248 2.248a.88.88 0 010 1.242z"/></g><defs><clipPath id="fa"><path d="M0 0h14v14H0z"/></clipPath></defs></svg><svg viewBox="0 0 16 16" id="radio-icon" xmlns="http://www.w3.org/2000/svg"><rect x=".5" y=".5" width="15" height="15" rx="7.5"/><rect x="4" y="4" width="8" height="8" rx="4"/></svg><svg viewBox="0 0 16 14" id="telegram" xmlns="http://www.w3.org/2000/svg"><path d="M15.647.496l-2.475 12.921s-.346.896-1.298.466L6.164 9.35l-.027-.013c.772-.717 6.753-6.287 7.015-6.54.404-.39.153-.623-.317-.328L4 8.278.59 7.092s-.536-.197-.588-.627c-.052-.43.606-.663.606-.663L14.505.156s1.142-.52 1.142.34z"/></svg><svg viewBox="0 0 16 16" id="whatsapp" xmlns="http://www.w3.org/2000/svg"><path d="M13.188 2.253A7.672 7.672 0 007.75 0C3.5 0 .054 3.433.054 7.67c0 1.341.377 2.682 1.023 3.809L0 15.449l4.09-1.073a7.87 7.87 0 003.661.911c4.252 0 7.697-3.433 7.697-7.67-.054-1.985-.807-3.916-2.26-5.364zm-1.723 8.153c-.161.43-.915.858-1.292.912a3.02 3.02 0 01-1.184-.054c-.27-.107-.646-.214-1.076-.429C5.975 10.031 4.737 8.1 4.629 7.94c-.108-.108-.807-1.02-.807-1.985 0-.965.484-1.395.646-1.61.161-.214.376-.214.538-.214h.377c.107 0 .269-.053.43.322.162.376.539 1.341.592 1.395a.34.34 0 010 .322 1.094 1.094 0 01-.215.321c-.108.108-.215.269-.27.322-.107.108-.214.215-.107.376.108.214.485.804 1.077 1.34.753.644 1.345.859 1.56.966.216.108.324.054.431-.053.108-.108.485-.537.593-.751.107-.215.269-.161.43-.108.162.054 1.13.537 1.292.644.215.107.323.161.377.215.054.16.054.536-.108.965z"/></svg></svg>