<svg width="136" height="136" viewBox="0 0 136 136" fill="none" xmlns="http://www.w3.org/2000/svg">
<path d="M60.4877 11.1912L59.982 0.539183L68.1978 0.149099L68.7036 10.8012L67.0209 10.8811L66.5784 1.5605L61.7206 1.79115L62.1631 11.1117L60.4877 11.1912ZM72.0097 5.89576L72.1098 5.22941C72.3571 3.58284 72.9704 2.37636 73.9496 1.60997C74.9295 0.838761 76.0834 0.552874 77.4112 0.752313C78.7391 0.951753 79.7605 1.56436 80.4755 2.59013C81.1912 3.61107 81.4253 4.94483 81.178 6.5914L81.078 7.25775C80.8306 8.90432 80.2146 10.1129 79.2299 10.8833C78.2459 11.649 77.0899 11.9321 75.7621 11.7327C74.4342 11.5332 73.4148 10.9234 72.704 9.90319C71.9938 8.87814 71.7624 7.54233 72.0097 5.89576ZM73.6865 6.22166C73.5073 7.41434 73.6275 8.373 74.047 9.09764C74.4713 9.823 75.1108 10.2499 75.9655 10.3782C76.825 10.5073 77.5617 10.2872 78.1755 9.71771C78.7942 9.149 79.1931 8.2683 79.3722 7.07562L79.493 6.27165C79.6728 5.07415 79.5506 4.11271 79.1263 3.38735C78.7068 2.66271 78.0673 2.23584 77.2078 2.10675C76.3531 1.97838 75.6165 2.19856 74.9978 2.76727C74.3839 3.33671 73.9871 4.22018 73.8072 5.41769L73.6865 6.22166ZM84.1356 7.96844L84.3627 7.33401C84.9237 5.76634 85.7564 4.70039 86.8607 4.13617C87.9712 3.56899 89.1448 3.50669 90.3815 3.94927C91.5998 4.38526 92.4384 5.05618 92.8973 5.96202C93.3578 6.86327 93.4154 7.79661 93.0699 8.76204L93.0329 8.86548L91.4468 8.29786L91.4887 8.18063C91.7125 7.5554 91.7012 6.9783 91.4549 6.44933C91.2132 5.92201 90.6992 5.51767 89.9131 5.23634C89.1362 4.95829 88.3989 5.01857 87.7013 5.41719C87.0054 5.81121 86.4395 6.61736 86.0035 7.83564L85.7221 8.62178C85.319 9.74811 85.2501 10.7088 85.5153 11.5038C85.7867 12.2959 86.3178 12.8334 87.1086 13.1164C87.8441 13.3797 88.472 13.3787 88.9921 13.1137C89.5122 12.8486 89.907 12.4194 90.1763 11.8261L90.2227 11.7182L91.8088 12.2859L91.7624 12.3937C91.3466 13.3236 90.6924 13.9997 89.7997 14.4218C88.9116 14.8456 87.8585 14.8395 86.6402 14.4035C85.3989 13.9593 84.5313 13.1665 84.0374 12.0251C83.5435 10.8837 83.5762 9.53151 84.1356 7.96844ZM92.7288 16.5685L97.9953 7.29562L103.937 10.6704L103.279 11.8295L98.7891 9.27943L97.2229 12.0371L101.127 14.2544L100.472 15.4071L96.5682 13.1898L94.8392 16.2341L99.3928 18.8203L98.7345 19.9794L92.7288 16.5685ZM105.662 13.358L106.5 12.3218L112.991 17.5743L112.152 18.6105L109.562 16.5141L103.692 23.7676L102.388 22.7125L108.258 15.459L105.662 13.358ZM113.191 33.6859L112.093 32.4089L117.672 27.6081C117.791 27.5062 117.922 27.3932 118.067 27.269C118.214 27.1485 118.35 27.041 118.475 26.9465L118.437 26.902C118.289 26.9394 118.13 26.976 117.961 27.0118C117.796 27.0444 117.622 27.0781 117.439 27.1128L108.839 28.628L107.655 27.2511L115.739 20.2959L116.832 21.5673L111.253 26.3681C111.134 26.47 110.999 26.5828 110.848 26.7065C110.704 26.8307 110.573 26.9403 110.455 27.0353L110.493 27.0797C110.627 27.0414 110.781 27.0061 110.953 26.974C111.128 26.9387 111.308 26.9037 111.49 26.8689L120.09 25.3538L121.275 26.7307L113.191 33.6859ZM122.494 30.4711L123.645 29.7975L127.864 37.0027L126.713 37.6763L125.029 34.8005L116.977 39.5156L116.13 38.0682L124.182 33.3532L122.494 30.4711ZM129.446 40.4046L130.038 41.9739L126.227 43.4113L126.941 45.3027C127.374 46.4494 127.418 47.4188 127.075 48.211C126.734 49.0078 126.102 49.5802 125.179 49.9284C124.247 50.28 123.388 50.2703 122.601 49.8993C121.815 49.5328 121.205 48.7739 120.771 47.6226L119.468 44.1689L129.446 40.4046ZM124.987 43.8793L121.3 45.2702L121.991 47.0999C122.261 47.8171 122.625 48.2565 123.083 48.4178C123.547 48.5821 124.048 48.5625 124.587 48.3591C125.117 48.1592 125.497 47.8461 125.728 47.4199C125.965 46.9965 125.948 46.4262 125.677 45.709L124.987 43.8793ZM134.169 56.57L134.286 58.2431L124.978 58.8953L125.224 62.4097L134.532 61.7575L134.65 63.4379L125.342 64.0901L125.588 67.6045L134.896 66.9523L135.013 68.6254L124.375 69.3708L123.531 57.3154L134.169 56.57ZM129.303 72.7061L129.968 72.8132C131.612 73.0777 132.812 73.7036 133.568 74.6908C134.329 75.6787 134.603 76.8355 134.39 78.1612C134.176 79.487 133.553 80.5019 132.52 81.206C131.491 81.911 130.155 82.1311 128.511 81.8666L127.846 81.7595C126.202 81.4949 125 80.8663 124.24 79.8735C123.485 78.8815 123.214 77.7227 123.427 76.397C123.64 75.0713 124.261 74.0583 125.289 73.3582C126.321 72.6589 127.659 72.4415 129.303 72.7061ZM128.96 74.3793C127.769 74.1877 126.809 74.2978 126.08 74.7097C125.35 75.1263 124.917 75.7613 124.779 76.6146C124.641 77.4727 124.854 78.2116 125.417 78.8314C125.979 79.456 126.855 79.8641 128.046 80.0558L128.849 80.185C130.044 80.3774 131.007 80.2652 131.737 79.8486C132.466 79.4367 132.899 78.8017 133.037 77.9436C133.175 77.0903 132.962 76.3514 132.4 75.7268C131.837 75.107 130.958 74.7009 129.762 74.5085L128.96 74.3793ZM123.589 83.8414C123.507 83.9521 123.428 84.0768 123.352 84.2154C123.274 84.3587 123.211 84.4991 123.161 84.6369C123.008 85.0594 122.978 85.4378 123.07 85.7722C123.162 86.1066 123.432 86.5157 123.88 86.9997L123.875 86.9903L132.697 86.0285L132.074 87.7504L126.413 88.2659C126.108 88.2906 125.882 88.305 125.735 88.3091C125.588 88.3131 125.417 88.3211 125.22 88.3332L125.205 88.3745C125.35 88.5048 125.476 88.6153 125.584 88.7061C125.696 88.7985 125.863 88.9471 126.084 89.1519L130.189 92.9645L129.629 94.5143L123.474 88.6599C122.524 87.7556 121.93 86.993 121.692 86.3723C121.453 85.7562 121.462 85.0923 121.719 84.3805C121.82 84.1004 121.91 83.8887 121.988 83.7455C122.064 83.6069 122.15 83.477 122.245 83.3558L123.589 83.8414ZM118.78 92.5608L128.055 97.8239L126.229 101.041C125.641 102.077 124.933 102.727 124.103 102.992C123.274 103.257 122.415 103.137 121.528 102.634C120.644 102.133 120.099 101.456 119.893 100.603C119.686 99.7501 119.877 98.8057 120.465 97.7695L121.462 96.0113L117.952 94.0196L118.78 92.5608ZM122.609 96.662L121.647 98.3564C121.262 99.0359 121.157 99.6022 121.332 100.055C121.509 100.515 121.85 100.888 122.355 101.175C122.856 101.459 123.345 101.557 123.822 101.469C124.297 101.384 124.727 101.002 125.113 100.323L126.074 98.6284L122.609 96.662ZM114.996 101.55C114.882 101.627 114.766 101.718 114.648 101.824C114.527 101.933 114.42 102.044 114.327 102.157C114.042 102.505 113.887 102.851 113.863 103.197C113.838 103.543 113.956 104.019 114.217 104.625L114.216 104.614L122.853 106.649L121.692 108.065L116.183 106.663C115.887 106.585 115.669 106.523 115.529 106.478C115.39 106.432 115.225 106.383 115.036 106.329L115.008 106.363C115.101 106.534 115.183 106.68 115.254 106.801C115.329 106.926 115.437 107.122 115.578 107.389L118.176 112.352L117.131 113.626L113.281 106.055C112.687 104.885 112.381 103.968 112.364 103.304C112.344 102.643 112.573 102.02 113.053 101.435C113.242 101.205 113.397 101.035 113.518 100.926C113.636 100.82 113.761 100.727 113.891 100.644L114.996 101.55ZM107.526 108.134L114.216 116.439L112.533 117.794L105.428 113.69C105.287 113.608 105.151 113.521 105.018 113.427C104.882 113.336 104.75 113.242 104.622 113.144L104.582 113.177C104.649 113.323 104.713 113.472 104.773 113.624C104.833 113.777 104.888 113.93 104.937 114.085L107.44 121.897L105.74 123.266L99.0504 114.961L100.334 113.927L104.979 119.694C105.074 119.812 105.178 119.945 105.29 120.092C105.402 120.247 105.498 120.389 105.578 120.519L105.623 120.482C105.551 120.346 105.478 120.185 105.404 120C105.33 119.822 105.268 119.656 105.218 119.501L102.792 111.947L103.899 111.056L110.763 115.035C110.903 115.116 111.056 115.213 111.221 115.324C111.382 115.439 111.52 115.544 111.635 115.64L111.675 115.608C111.572 115.503 111.458 115.378 111.335 115.232C111.208 115.09 111.097 114.96 111.002 114.842L106.357 109.076L107.526 108.134ZM87.9424 119.786C88.2753 120.355 88.7942 120.907 89.4991 121.442C90.2076 121.987 91.0837 122.409 92.1274 122.709C93.1617 123.013 94.1129 123.097 94.981 122.961L95.2039 123.55C94.4796 124.038 93.8483 124.672 93.3098 125.453C92.7655 126.247 92.3817 127.098 92.1584 128.006C91.9328 128.936 91.8861 129.787 92.0182 130.561L91.429 130.783C91.1679 130.348 90.8173 129.93 90.3773 129.529C89.9407 129.139 89.4412 128.793 88.8785 128.493C88.31 128.205 87.7107 127.977 87.0805 127.81C86.1435 127.565 85.2597 127.504 84.429 127.626L84.2061 127.037C84.6816 126.739 85.1352 126.327 85.5667 125.8C85.9889 125.277 86.3507 124.707 86.652 124.091C86.957 123.484 87.1688 122.885 87.2877 122.295C87.462 121.427 87.4838 120.665 87.3531 120.009L87.9424 119.786ZM75.8939 123.926L76.6141 134.566L68.4078 135.121L67.6876 124.482L69.3683 124.368L69.9985 133.678L74.8506 133.349L74.2205 124.04L75.8939 123.926ZM64.4865 129.453L64.4002 130.122C64.1871 131.773 63.599 132.992 62.6359 133.778C61.6721 134.57 60.5244 134.88 59.1927 134.708C57.861 134.536 56.8271 133.944 56.091 132.934C55.3544 131.928 55.0926 130.599 55.3057 128.948L55.392 128.28C55.6051 126.628 56.196 125.407 57.1645 124.616C58.1325 123.831 59.2823 123.524 60.614 123.695C61.9458 123.867 62.9775 124.456 63.7094 125.461C64.4406 126.471 64.6996 127.802 64.4865 129.453ZM62.8033 129.162C62.9577 127.966 62.8177 127.01 62.3833 126.294C61.9441 125.578 61.2959 125.164 60.4387 125.054C59.5767 124.943 58.8448 125.178 58.2428 125.76C57.6361 126.341 57.2555 127.23 57.1011 128.426L56.9971 129.233C56.842 130.434 56.9842 131.392 57.4234 132.109C57.8578 132.825 58.506 133.238 59.368 133.349C60.2252 133.46 60.9571 133.225 61.5639 132.643C62.1658 132.061 62.5443 131.17 62.6993 129.969L62.8033 129.162ZM52.3279 127.635L52.1147 128.274C51.5879 129.854 50.7786 130.938 49.6869 131.526C48.5889 132.117 47.417 132.205 46.1709 131.789C44.9435 131.38 44.0905 130.727 43.612 129.832C43.1319 128.941 43.0541 128.009 43.3785 127.036L43.4132 126.932L45.0113 127.465L44.9719 127.583C44.7618 128.213 44.7856 128.79 45.0434 129.313C45.2965 129.835 45.8192 130.228 46.6112 130.492C47.394 130.753 48.1298 130.677 48.8185 130.263C49.5057 129.854 50.054 129.036 50.4634 127.809L50.7275 127.017C51.106 125.882 51.154 124.92 50.8716 124.131C50.583 123.345 50.0403 122.819 49.2436 122.553C48.5025 122.306 47.8748 122.321 47.3606 122.597C46.8464 122.873 46.4611 123.311 46.2047 123.91L46.1606 124.019L44.5626 123.486L44.6066 123.377C45.0021 122.438 45.6414 121.748 46.5247 121.307C47.4034 120.864 48.4564 120.847 49.6839 121.256C50.9345 121.673 51.8192 122.447 52.3378 123.577C52.8564 124.708 52.8531 126.06 52.3279 127.635ZM43.5524 119.222L38.4692 128.597L32.462 125.34L33.0974 124.168L37.6366 126.629L39.1483 123.841L35.2014 121.701L35.8333 120.536L39.7802 122.676L41.449 119.598L36.8454 117.102L37.4808 115.93L43.5524 119.222ZM30.7097 122.706L29.8952 123.761L23.2857 118.659L24.1002 117.604L26.7382 119.64L32.44 112.254L33.7677 113.279L28.0659 120.665L30.7097 122.706ZM22.7409 102.533L23.8642 103.789L18.3787 108.697C18.2622 108.801 18.133 108.917 17.9911 109.044C17.846 109.167 17.7119 109.277 17.5889 109.374L17.628 109.418C17.7755 109.378 17.9333 109.338 18.1015 109.299C18.266 109.263 18.4392 109.226 18.6211 109.188L27.1901 107.506L28.4013 108.86L20.4541 115.97L19.3357 114.721L24.8212 109.812C24.9377 109.708 25.0703 109.593 25.2191 109.466C25.361 109.339 25.49 109.227 25.6061 109.13L25.567 109.086C25.4333 109.127 25.2808 109.165 25.1093 109.201C24.9343 109.239 24.7558 109.278 24.5739 109.316L16.0049 110.998L14.7937 109.644L22.7409 102.533ZM13.4985 105.923L12.3612 106.618L8.00683 99.4937L9.14422 98.7986L10.8821 101.642L18.8439 96.7759L19.7185 98.207L11.7568 103.073L13.4985 105.923ZM6.37411 96.1692L5.74558 94.6141L9.5211 93.0881L8.76357 91.2139C8.3043 90.0776 8.23688 89.1095 8.56132 88.3095C8.88393 87.505 9.50246 86.9179 10.4169 86.5483C11.3404 86.175 12.2 86.1647 12.9955 86.5172C13.7892 86.8653 14.4167 87.6097 14.8778 88.7505L16.2611 92.1729L6.37411 96.1692ZM10.7502 92.5913L14.4035 91.1147L13.6706 89.3016C13.3834 88.5909 13.0092 88.1602 12.548 88.0095C12.0805 87.8561 11.5796 87.8874 11.0454 88.1033C10.5203 88.3156 10.1475 88.6375 9.92686 89.0689C9.69992 89.4977 9.73008 90.0675 10.0174 90.7782L10.7502 92.5913ZM1.31475 80.0904L1.16123 78.4202L10.4531 77.5662L10.1307 74.058L0.838785 74.912L0.684599 73.2345L9.97649 72.3805L9.65404 68.8723L0.362149 69.7264L0.208633 68.0562L10.8279 67.0801L11.934 79.1143L1.31475 80.0904ZM5.83153 63.8465L5.16425 63.7529C3.51537 63.5214 2.30304 62.9199 1.52726 61.9481C0.746651 60.9757 0.449665 59.8246 0.636309 58.4948C0.822952 57.1651 1.42569 56.1378 2.44453 55.413C3.45853 54.6876 4.78997 54.4405 6.43885 54.672L7.10614 54.7656C8.75501 54.9971 9.96942 55.6014 10.7494 56.5787C11.5245 57.5553 11.8187 58.7085 11.632 60.0382C11.4454 61.3679 10.8454 62.3931 9.83209 63.1138C8.81393 63.8337 7.48041 64.078 5.83153 63.8465ZM6.14127 62.1668C7.33562 62.3344 8.29307 62.205 9.01364 61.7785C9.73489 61.3473 10.1556 60.7037 10.2757 59.8478C10.3965 58.9871 10.1693 58.2526 9.59393 57.6443C9.01929 57.0311 8.13479 56.6407 6.94044 56.4731L6.13535 56.36C4.93616 56.1917 3.97595 56.3232 3.25471 56.7545C2.53414 57.1809 2.11345 57.8245 1.99264 58.6852C1.87251 59.5411 2.09977 60.2756 2.67441 60.8888C3.24974 61.4971 4.13699 61.8854 5.33617 62.0537L6.14127 62.1668ZM11.3182 52.6C11.3973 52.4875 11.4734 52.3612 11.5464 52.2209C11.621 52.076 11.6817 51.9341 11.7284 51.7953C11.8719 51.3696 11.894 50.9906 11.7947 50.6583C11.6954 50.326 11.4165 49.9229 10.9579 49.4489L10.9625 49.4582L2.16435 50.6131L2.74903 48.8779L8.39785 48.2385C8.70214 48.207 8.92764 48.1877 9.07435 48.1804C9.22106 48.1732 9.39249 48.1614 9.58865 48.1451L9.60268 48.1034C9.45486 47.9763 9.32628 47.8686 9.21694 47.7802C9.10297 47.6903 8.93282 47.5454 8.70649 47.3454L4.51945 43.6237L5.04567 42.062L11.3269 47.7801C12.2968 48.6634 12.9074 49.4128 13.1586 50.0281C13.4114 50.6389 13.417 51.3028 13.1753 52.0201C13.0802 52.3023 12.9953 52.5159 12.9208 52.6608C12.8477 52.8011 12.7647 52.9328 12.6716 53.056L11.3182 52.6ZM15.9371 43.7781L6.56161 38.6966L8.32407 35.4448C8.89179 34.3973 9.58776 33.7332 10.412 33.4523C11.2362 33.1715 12.0969 33.2742 12.9941 33.7605C13.887 34.2444 14.4451 34.9107 14.6683 35.7592C14.8915 36.6078 14.7193 37.5558 14.1516 38.6032L13.1883 40.3805L16.7364 42.3035L15.9371 43.7781ZM12.0293 39.7523L12.9576 38.0394C13.3299 37.3526 13.424 36.7843 13.2401 36.3347C13.0541 35.8785 12.7058 35.512 12.1949 35.2351C11.6884 34.9605 11.1975 34.8722 10.7223 34.9701C10.2495 35.0637 9.82695 35.454 9.45468 36.1408L8.52633 37.8537L12.0293 39.7523ZM19.5444 34.7164C19.6565 34.6369 19.7705 34.5433 19.8863 34.4355C20.005 34.3239 20.1097 34.2106 20.2002 34.0954C20.4778 33.7422 20.6254 33.3924 20.643 33.0461C20.6606 32.6997 20.5327 32.2265 20.2591 31.6264L20.2603 31.6367L11.5828 29.7814L12.7143 28.3418L18.2515 29.6292C18.5488 29.7014 18.7678 29.7586 18.9085 29.8009C19.0492 29.8431 19.2147 29.8894 19.405 29.9396L19.4321 29.9051C19.3353 29.7358 19.2502 29.5913 19.1767 29.4714C19.0994 29.3485 18.9876 29.155 18.8412 28.8909L16.1406 23.9828L17.159 22.6872L21.1652 30.1773C21.7837 31.3342 22.1083 32.2446 22.1392 32.9086C22.1731 33.5687 21.9562 34.1962 21.4885 34.7913C21.3044 35.0254 21.153 35.1983 21.0342 35.3099C20.9185 35.4177 20.7961 35.514 20.6672 35.599L19.5444 34.7164ZM26.8762 27.9798L20.0219 19.8104L21.6771 18.4216L28.8634 22.3831C29.0056 22.4614 29.1437 22.5463 29.2778 22.6377C29.4156 22.726 29.5497 22.8175 29.6801 22.9121L29.7194 22.8791C29.6488 22.7343 29.5821 22.5864 29.5191 22.4353C29.456 22.2842 29.3983 22.1318 29.3459 21.9782L26.6876 14.2177L28.3596 12.8148L35.214 20.9842L33.9515 22.0434L29.1921 16.3708C29.0948 16.2549 28.9884 16.1243 28.8729 15.979C28.7579 15.8268 28.6593 15.6865 28.577 15.558L28.5321 15.5956C28.607 15.7304 28.6831 15.8896 28.7606 16.0731C28.8388 16.2498 28.904 16.4149 28.9564 16.5686L31.5333 24.0725L30.4447 24.9857L23.5027 21.1444C23.3605 21.0661 23.2057 20.9729 23.0385 20.8647C22.8749 20.7533 22.7348 20.6509 22.6182 20.5575L22.579 20.5905C22.6843 20.6933 22.8001 20.8161 22.9262 20.9588C23.0561 21.0984 23.1697 21.2262 23.267 21.3422L28.0265 27.0148L26.8762 27.9798ZM46.2068 15.8936C45.8597 15.3331 45.327 14.7943 44.6088 14.2771C43.8868 13.7506 43.0003 13.3505 41.9493 13.0768C40.9076 12.7993 39.9546 12.7395 39.0903 12.8973L38.8526 12.3139C39.5643 11.8079 40.1794 11.1578 40.698 10.3634C41.2221 9.55594 41.5843 8.6957 41.7846 7.78264C41.9866 6.84728 42.0118 5.99476 41.8602 5.22508L42.4436 4.98737C42.7156 5.41646 43.0766 5.82547 43.5267 6.21443C43.9729 6.59412 44.4811 6.92699 45.0511 7.21304C45.6267 7.48605 46.2316 7.69853 46.8658 7.85047C47.8087 8.071 48.6938 8.10991 49.5211 7.96721L49.7588 8.55065C49.2909 8.86004 48.848 9.28348 48.4299 9.82096C48.021 10.3547 47.6737 10.9335 47.388 11.5574C47.0986 12.1721 46.9019 12.7759 46.7979 13.3689C46.6457 14.2409 46.6431 15.0032 46.7903 15.6559L46.2068 15.8936Z" fill="white"/>
</svg>
